# xmcd CD database file
#
# Track frame offsets:
#	150
#	25775
#	48730
#	66875
#	85975
#	100735
#	112180
#	131327
#	150100
#	179925
#	204750
#	225102
#	244900
#	260650
#	275882
#	305172
#	325475
#
# Disc length: 4647 seconds
#
# Revision: 3
# Processed by: cddbd v1.4PL0 Copyright (c) Steve Scherf et al.
# Submitted via: CDex 1.40Release
#
DISCID=f3122511
DTITLE=Neil Young - From Hank To Hendrix
DYEAR=1992
DGENRE=Rock
TTITLE0=Harvest Moon
TTITLE1=Unknown Legend
TTITLE2=Old King
TTITLE3=Old Man
TTITLE4=Heart Of Gold
TTITLE5=The Needle And The Damage Done
TTITLE6=Helpless
TTITLE7=Stringman
TTITLE8=Like A Hurricane
TTITLE9=From Hank To Hendrix
TTITLE10=Long May You Run
TTITLE11=Depression Blues
TTITLE12=Silver And Gold
TTITLE13=You And Me
TTITLE14=War Of Man
TTITLE15=Such A Woman
TTITLE16=Dreamin' Man
EXTD=YEAR: 1992 ID3G: 17
EXTT0=
EXTT1=
EXTT2=
EXTT3=
EXTT4=
EXTT5=
EXTT6=
EXTT7=
EXTT8=
EXTT9=
EXTT10=
EXTT11=
EXTT12=
EXTT13=
EXTT14=
EXTT15=
EXTT16=
PLAYORDER=
